<?xml version="1.0" encoding="utf-8"?>
<!-- Generator: Adobe Illustrator 24.3.0, SVG Export Plug-In . SVG Version: 6.00 Build 0)  -->
<svg version="1.1" id="Layer_1" xmlns:svgjs="http://svgjs.com/svgjs"
	 xmlns="http://www.w3.org/2000/svg" xmlns:xlink="http://www.w3.org/1999/xlink" x="0px" y="0px" viewBox="0 0 512 512"
	 style="enable-background:new 0 0 512 512;" xml:space="preserve">
<style type="text/css">
	.st0{fill:#757575;}
</style>
<g>
	<path class="st0" d="M512,177.6h-75.8L294.7,41.9l-23.4,24.4l116.1,111.4H124.1L238.5,66.2L215,42L75.7,177.6H0v33.8h20.4L53,420.9
		c4.3,27.6,29.5,49.3,57.5,49.3h288.9c27.9,0,53.3-21.6,57.8-49.1l34.4-209.6H512V177.6z M423.8,415.6
		c-1.8,11.1-13.2,20.8-24.5,20.8H110.4c-11.1,0-22.4-9.7-24.1-20.7L54.5,211.4h402.7L423.8,415.6z"/>
</g>
</svg>
